<svg xmlns="http://www.w3.org/2000/svg" viewBox="0 0 250 56" fill="none" role="img" aria-labelledby="title desc">
  <title id="title">团绘AI</title>
  <desc id="desc">由五张连续画布组成的团绘AI品牌标志</desc>
  <g transform="translate(2 4)">
    <path d="M2 6 18 14v6h-4v4h4v18L2 34V6Z" fill="#17171B"/>
    <path d="m20 14 16-8v28l-16 8V24h4v-4h-4v-6Z" fill="#17171B"/>
    <path d="m39 6 16 8v28l-16-8V6Z" fill="#7557FF"/>
    <path d="m58 14 16-8v14h-4v4h4v10l-16 8V27h4v-4h-4v-9Z" fill="#17171B"/>
    <path d="m76 6 14 8v28l-14-8V24h4v-4h-4V6Z" fill="#17171B"/>
  </g>
  <text x="108" y="29" fill="#17171B" font-family="Inter, PingFang SC, Microsoft YaHei, sans-serif" font-size="22" font-weight="750" letter-spacing="-1">团绘AI</text>
  <text x="109" y="43" fill="#777777" font-family="Inter, Arial, sans-serif" font-size="7" font-weight="650" letter-spacing="2.2">TUANHUI AI</text>
</svg>
